<svg id="Layer_1" data-name="Layer 1" xmlns="http://www.w3.org/2000/svg" viewBox="0 0 728.2 645.4"><defs><style>.cls-1{fill:#504f61;}.cls-2{fill:#a155b9;}.cls-3{fill:#f765a3;}.cls-4{fill:#32b196;}.cls-5{fill:#98aaa9;}.cls-6{fill:#ffa4b6;}.cls-7{fill:#165ba9;}.cls-8,.cls-9{fill:#a8a8a9;}.cls-9{font-size:9.91px;font-family:OpenSans-Light, OpenSans Light;font-weight:300;}.cls-10{letter-spacing:-0.01em;}.cls-11{letter-spacing:-0.01em;}.cls-12{letter-spacing:0em;}.cls-13{letter-spacing:-0.01em;}.cls-14{letter-spacing:0.01em;}.cls-15{letter-spacing:0em;}.cls-16{letter-spacing:-0.01em;}.cls-17{letter-spacing:0em;}.cls-18{letter-spacing:-0.01em;}.cls-19{letter-spacing:-0.01em;}.cls-20{letter-spacing:0em;}.cls-21{fill:none;}.cls-21,.cls-23{stroke:#000;stroke-miterlimit:10;}.cls-22{font-size:0.5px;font-family:MyriadPro-Regular, Myriad Pro;}.cls-23{stroke-width:0.5px;}</style></defs><path class="cls-1" d="M494.8,223.22l.87.88,34.51-34.52H635.69v-2.47H528.85v.41l-.05-.05-33.67,33.66a158.72,158.72,0,0,0-85-34.84v1.87a157.68,157.68,0,0,1,84.63,35.13Z" transform="translate(-39.52 -21.42)"/><path class="cls-2" d="M294,468.46l-.87-.87L258.59,502.1H153.09v2.48H259.93v-.42l.05,0,33.66-33.66a158.75,158.75,0,0,0,85,34.84v-1.86a157.71,157.71,0,0,1-84.63-35.14Z" transform="translate(-39.52 -21.42)"/><path class="cls-3" d="M601.41,331.37v-2.48h-47.6a158.77,158.77,0,0,0-35.49-84.76l-1.38,1.37a157.68,157.68,0,0,1,35.13,84.63h0v1.24Z" transform="translate(-39.52 -21.42)"/><path class="cls-4" d="M377.44,186.42a158.81,158.81,0,0,0-84.77,35.49l1.38,1.38a157.62,157.62,0,0,1,84.63-35.13v0h1.24V138.81h-2.48Z" transform="translate(-39.52 -21.42)"/><path class="cls-5" d="M269.68,245.1a158.72,158.72,0,0,0-34.84,85h1.86a157.84,157.84,0,0,1,35.13-84.63l-.06-.07.87-.87-34.87-34.88-.46.46v-.82H130.47v2.48H236.38Z" transform="translate(-39.52 -21.42)"/><path class="cls-6" d="M187.36,360.31v2.48H235a158.77,158.77,0,0,0,35.49,84.76l1.37-1.37a157.77,157.77,0,0,1-35.13-84.63h0v-1.24Z" transform="translate(-39.52 -21.42)"/><path class="cls-7" d="M552.4,479.89l-33.3-33.3a158.79,158.79,0,0,0,34.84-85h-1.87a157.62,157.62,0,0,1-35.13,84.63l.07.07-.88.87L551,482l0-.05v.41H657.9v-2.47Z" transform="translate(-39.52 -21.42)"/><path class="cls-4" d="M410.25,504.45A158.73,158.73,0,0,0,495,469l-1.38-1.37A157.77,157.77,0,0,1,409,502.72v0h-1.24v49.32h2.48Z" transform="translate(-39.52 -21.42)"/><path class="cls-8" d="M306.45,21.78h.86v5.95h2.86v.72h-3.72Z" transform="translate(-39.52 -21.42)"/><path class="cls-8" d="M315.3,26a2.34,2.34,0,0,1-2.39,2.55,2.29,2.29,0,0,1-2.3-2.47A2.34,2.34,0,0,1,313,23.55,2.27,2.27,0,0,1,315.3,26Zm-3.8,0c0,1.05.6,1.85,1.45,1.85s1.46-.79,1.46-1.87c0-.81-.41-1.84-1.44-1.84S311.5,25.15,311.5,26.06Z" transform="translate(-39.52 -21.42)"/><path class="cls-8" d="M316.43,21.78h.86v5.95h2.85v.72h-3.71Z" transform="translate(-39.52 -21.42)"/><path class="cls-8" d="M325.28,26a2.34,2.34,0,0,1-2.39,2.55,2.28,2.28,0,0,1-2.3-2.47A2.34,2.34,0,0,1,323,23.55,2.27,2.27,0,0,1,325.28,26Zm-3.81,0c0,1.05.61,1.85,1.46,1.85s1.45-.79,1.45-1.87c0-.81-.4-1.84-1.43-1.84S321.47,25.15,321.47,26.06Z" transform="translate(-39.52 -21.42)"/><path class="cls-8" d="M326.38,25.15c0-.56,0-1,0-1.49h.76l0,.94h0a1.43,1.43,0,0,1,1.33-1.05,1,1,0,0,1,.25,0v.82a1.32,1.32,0,0,0-.3,0,1.22,1.22,0,0,0-1.17,1.12,2.48,2.48,0,0,0,0,.41v2.55h-.86Z" transform="translate(-39.52 -21.42)"/><path class="cls-8" d="M330,26.21a1.55,1.55,0,0,0,1.65,1.67,3.16,3.16,0,0,0,1.33-.25l.14.62a3.81,3.81,0,0,1-1.59.3,2.23,2.23,0,0,1-2.36-2.42,2.33,2.33,0,0,1,2.25-2.58,2,2,0,0,1,2,2.26,3.29,3.29,0,0,1,0,.4Zm2.56-.62a1.24,1.24,0,0,0-1.21-1.42A1.45,1.45,0,0,0,330,25.59Z" transform="translate(-39.52 -21.42)"/><path class="cls-8" d="M334.48,25c0-.49,0-.9,0-1.29h.77l0,.77h0a1.63,1.63,0,0,1,1.5-.88,1.42,1.42,0,0,1,1.36,1h0a2,2,0,0,1,.53-.63,1.7,1.7,0,0,1,1.06-.33c.64,0,1.58.41,1.58,2.08v2.82h-.86V25.74c0-.92-.33-1.48-1-1.48a1.12,1.12,0,0,0-1,.79,1.45,1.45,0,0,0-.07.44v3h-.86V25.58c0-.76-.33-1.32-1-1.32a1.2,1.2,0,0,0-1.08.87,1.49,1.49,0,0,0-.07.43v2.89h-.85Z" transform="translate(-39.52 -21.42)"/><path class="cls-8" d="M345.82,22.31a.54.54,0,1,1-1.08,0,.53.53,0,0,1,.54-.54A.51.51,0,0,1,345.82,22.31Zm-1,6.14V23.66h.87v4.79Z" transform="translate(-39.52 -21.42)"/><path class="cls-8" d="M347.17,25.22c0-.61,0-1.11,0-1.56h.78l0,.82h0a1.89,1.89,0,0,1,1.7-.93,2.17,2.17,0,0,1,2,2.43c0,1.73-1.05,2.58-2.18,2.58a1.68,1.68,0,0,1-1.47-.75h0v2.6h-.86ZM348,26.5a2,2,0,0,0,0,.36,1.35,1.35,0,0,0,1.31,1c.92,0,1.45-.76,1.45-1.86s-.5-1.78-1.43-1.78a1.39,1.39,0,0,0-1.31,1.08,1.43,1.43,0,0,0-.06.36Z" transform="translate(-39.52 -21.42)"/><path class="cls-8" d="M352.69,27.56a2.23,2.23,0,0,0,1.14.35c.64,0,.93-.32.93-.72s-.24-.64-.89-.88c-.86-.31-1.26-.78-1.26-1.36a1.47,1.47,0,0,1,1.65-1.4,2.37,2.37,0,0,1,1.18.3l-.22.63a1.84,1.84,0,0,0-1-.28c-.52,0-.8.3-.8.66s.28.57.91.81c.83.31,1.26.73,1.26,1.44s-.66,1.44-1.8,1.44a2.68,2.68,0,0,1-1.34-.33Z" transform="translate(-39.52 -21.42)"/><path class="cls-8" d="M360.74,27.14c0,.5,0,.93,0,1.31H360l-.05-.78h0a1.83,1.83,0,0,1-1.59.89c-.75,0-1.65-.42-1.65-2.1v-2.8h.87v2.65c0,.91.28,1.53,1.07,1.53a1.27,1.27,0,0,0,1.15-.8,1.19,1.19,0,0,0,.08-.44V23.66h.87Z" transform="translate(-39.52 -21.42)"/><path class="cls-8" d="M362.19,25c0-.49,0-.9,0-1.29h.76l0,.77h0a1.64,1.64,0,0,1,1.51-.88,1.41,1.41,0,0,1,1.35,1h0a2,2,0,0,1,.54-.63,1.66,1.66,0,0,1,1.06-.33c.63,0,1.57.41,1.57,2.08v2.82h-.85V25.74c0-.92-.34-1.48-1-1.48a1.13,1.13,0,0,0-1,.79,1.45,1.45,0,0,0-.07.44v3h-.85V25.58c0-.76-.34-1.32-1-1.32a1.19,1.19,0,0,0-1.08.87,1.21,1.21,0,0,0-.07.43v2.89h-.85Z" transform="translate(-39.52 -21.42)"/><path class="cls-8" d="M376.69,21.42v5.79c0,.43,0,.91,0,1.24H376l0-.83h0a1.78,1.78,0,0,1-1.64.94,2.18,2.18,0,0,1-2-2.44,2.29,2.29,0,0,1,2.14-2.57,1.62,1.62,0,0,1,1.45.73h0V21.42Zm-.87,4.19a1.55,1.55,0,0,0,0-.37,1.28,1.28,0,0,0-1.26-1c-.9,0-1.43.79-1.43,1.85s.47,1.78,1.41,1.78a1.31,1.31,0,0,0,1.28-1,1.53,1.53,0,0,0,0-.38Z" transform="translate(-39.52 -21.42)"/><path class="cls-8" d="M382.48,26a2.34,2.34,0,0,1-2.39,2.55,2.28,2.28,0,0,1-2.3-2.47,2.34,2.34,0,0,1,2.38-2.54A2.27,2.27,0,0,1,382.48,26Zm-3.8,0c0,1.05.6,1.85,1.45,1.85s1.46-.79,1.46-1.87c0-.81-.41-1.84-1.44-1.84S378.68,25.15,378.68,26.06Z" transform="translate(-39.52 -21.42)"/><path class="cls-8" d="M383.58,21.42h.87v7h-.87Z" transform="translate(-39.52 -21.42)"/><path class="cls-8" d="M390.26,26a2.34,2.34,0,0,1-2.39,2.55,2.28,2.28,0,0,1-2.3-2.47A2.34,2.34,0,0,1,388,23.55,2.27,2.27,0,0,1,390.26,26Zm-3.81,0c0,1.05.61,1.85,1.46,1.85s1.45-.79,1.45-1.87c0-.81-.4-1.84-1.43-1.84S386.45,25.15,386.45,26.06Z" transform="translate(-39.52 -21.42)"/><path class="cls-8" d="M391.36,25.15c0-.56,0-1,0-1.49h.76l0,.94h0a1.43,1.43,0,0,1,1.33-1.05.83.83,0,0,1,.24,0v.82a1.17,1.17,0,0,0-.29,0,1.22,1.22,0,0,0-1.17,1.12,2.48,2.48,0,0,0,0,.41v2.55h-.86Z" transform="translate(-39.52 -21.42)"/><path class="cls-8" d="M396.58,27.56a2.27,2.27,0,0,0,1.15.35c.63,0,.93-.32.93-.72s-.25-.64-.89-.88c-.86-.31-1.27-.78-1.27-1.36a1.47,1.47,0,0,1,1.65-1.4,2.34,2.34,0,0,1,1.18.3l-.21.63a1.88,1.88,0,0,0-1-.28c-.51,0-.8.3-.8.66s.29.57.91.81c.84.31,1.26.73,1.26,1.44s-.65,1.44-1.79,1.44a2.72,2.72,0,0,1-1.35-.33Z" transform="translate(-39.52 -21.42)"/><path class="cls-8" d="M401.59,22.31a.52.52,0,0,1-.55.54.54.54,0,0,1,0-1.08A.51.51,0,0,1,401.59,22.31Zm-1,6.14V23.66h.87v4.79Z" transform="translate(-39.52 -21.42)"/><path class="cls-8" d="M404,22.28v1.38h1.25v.66H404v2.59c0,.59.17.93.65.93a2,2,0,0,0,.51-.06l0,.65a2.13,2.13,0,0,1-.77.12,1.18,1.18,0,0,1-.94-.37,1.74,1.74,0,0,1-.34-1.24V24.32h-.74v-.66h.74V22.51Z" transform="translate(-39.52 -21.42)"/><path class="cls-8" d="M411,28.45l-.06-.6h0a1.82,1.82,0,0,1-1.47.71,1.37,1.37,0,0,1-1.47-1.38c0-1.16,1-1.79,2.89-1.78v-.1a1,1,0,0,0-1.09-1.11,2.38,2.38,0,0,0-1.25.36l-.2-.58a3.06,3.06,0,0,1,1.58-.42c1.46,0,1.82,1,1.82,2V27.3a6.69,6.69,0,0,0,.08,1.15ZM410.85,26c-1,0-2,.15-2,1.08a.77.77,0,0,0,.82.84,1.2,1.2,0,0,0,1.16-.81.86.86,0,0,0,.05-.27Z" transform="translate(-39.52 -21.42)"/><path class="cls-8" d="M413.1,25c0-.49,0-.9,0-1.29h.76l0,.77h0a1.64,1.64,0,0,1,1.5-.88,1.41,1.41,0,0,1,1.36,1h0a2,2,0,0,1,.54-.63,1.66,1.66,0,0,1,1.06-.33c.63,0,1.57.41,1.57,2.08v2.82h-.85V25.74c0-.92-.34-1.48-1-1.48a1.13,1.13,0,0,0-1,.79,1.45,1.45,0,0,0-.07.44v3h-.85V25.58c0-.76-.34-1.32-1-1.32a1.19,1.19,0,0,0-1.08.87,1.21,1.21,0,0,0-.07.43v2.89h-.85Z" transform="translate(-39.52 -21.42)"/><path class="cls-8" d="M421.85,26.21a1.54,1.54,0,0,0,1.64,1.67,3.16,3.16,0,0,0,1.33-.25l.14.62a3.81,3.81,0,0,1-1.59.3A2.23,2.23,0,0,1,421,26.13a2.33,2.33,0,0,1,2.25-2.58,2,2,0,0,1,2,2.26,3.29,3.29,0,0,1,0,.4Zm2.55-.62a1.24,1.24,0,0,0-1.21-1.42,1.43,1.43,0,0,0-1.33,1.42Z" transform="translate(-39.52 -21.42)"/><path class="cls-8" d="M427.37,22.28v1.38h1.25v.66h-1.25v2.59c0,.59.17.93.66.93a1.87,1.87,0,0,0,.5-.06l0,.65a2.09,2.09,0,0,1-.77.12,1.2,1.2,0,0,1-.94-.37,1.74,1.74,0,0,1-.34-1.24V24.32h-.74v-.66h.74V22.51Z" transform="translate(-39.52 -21.42)"/><path class="cls-8" d="M429,29.67a14.41,14.41,0,0,0,.59-2.37l1-.1a11.65,11.65,0,0,1-.94,2.41Z" transform="translate(-39.52 -21.42)"/><path class="cls-8" d="M309.84,40.16a3.19,3.19,0,0,1-1.38.28A2.28,2.28,0,0,1,306.08,38a2.43,2.43,0,0,1,2.57-2.54,2.89,2.89,0,0,1,1.21.25l-.2.67a2,2,0,0,0-1-.23,1.81,1.81,0,0,0,0,3.61,2.45,2.45,0,0,0,1.07-.24Z" transform="translate(-39.52 -21.42)"/><path class="cls-8" d="M315.14,37.9a2.34,2.34,0,0,1-2.39,2.55A2.28,2.28,0,0,1,310.46,38a2.34,2.34,0,0,1,2.37-2.54A2.27,2.27,0,0,1,315.14,37.9Zm-3.8.05c0,1,.6,1.85,1.45,1.85s1.46-.79,1.46-1.87c0-.81-.41-1.84-1.44-1.84S311.34,37,311.34,38Z" transform="translate(-39.52 -21.42)"/><path class="cls-8" d="M316.24,36.84c0-.49,0-.9,0-1.29H317l0,.79h0a1.77,1.77,0,0,1,1.59-.9c.66,0,1.69.39,1.69,2v2.86h-.87V37.58c0-.77-.29-1.42-1.11-1.42a1.25,1.25,0,0,0-1.17.89,1.27,1.27,0,0,0-.06.41v2.88h-.87Z" transform="translate(-39.52 -21.42)"/><path class="cls-8" d="M321.62,39.45a2.3,2.3,0,0,0,1.15.35c.64,0,.93-.32.93-.72s-.24-.64-.89-.88c-.86-.31-1.27-.78-1.27-1.36a1.48,1.48,0,0,1,1.66-1.4,2.4,2.4,0,0,1,1.18.3l-.22.63a1.87,1.87,0,0,0-1-.28c-.52,0-.8.3-.8.66s.28.57.91.81c.83.31,1.25.73,1.25,1.44s-.65,1.44-1.79,1.44a2.75,2.75,0,0,1-1.35-.33Z" transform="translate(-39.52 -21.42)"/><path class="cls-8" d="M326.15,38.1a1.54,1.54,0,0,0,1.64,1.67,3.13,3.13,0,0,0,1.33-.25l.15.62a3.85,3.85,0,0,1-1.59.3A2.23,2.23,0,0,1,325.32,38a2.33,2.33,0,0,1,2.25-2.58,2,2,0,0,1,2,2.26,3.29,3.29,0,0,1,0,.4Zm2.56-.62a1.24,1.24,0,0,0-1.21-1.42,1.45,1.45,0,0,0-1.34,1.42Z" transform="translate(-39.52 -21.42)"/><path class="cls-8" d="M334.05,40.16a3.23,3.23,0,0,1-1.38.28A2.28,2.28,0,0,1,330.28,38a2.44,2.44,0,0,1,2.58-2.54,2.93,2.93,0,0,1,1.21.25l-.2.67a2,2,0,0,0-1-.23,1.81,1.81,0,0,0,0,3.61,2.49,2.49,0,0,0,1.07-.24Z" transform="translate(-39.52 -21.42)"/><path class="cls-8" d="M336.25,34.17v1.38h1.25v.66h-1.25V38.8c0,.59.17.93.65.93a2,2,0,0,0,.51-.06l0,.65a2.15,2.15,0,0,1-.78.12,1.21,1.21,0,0,1-.94-.37,1.74,1.74,0,0,1-.33-1.24V36.21h-.75v-.66h.75V34.4Z" transform="translate(-39.52 -21.42)"/><path class="cls-8" d="M338.9,38.1a1.54,1.54,0,0,0,1.65,1.67,3.08,3.08,0,0,0,1.32-.25l.15.62a3.85,3.85,0,0,1-1.59.3A2.23,2.23,0,0,1,338.07,38a2.33,2.33,0,0,1,2.25-2.58,2,2,0,0,1,2,2.26,3.29,3.29,0,0,1,0,.4Zm2.56-.62a1.24,1.24,0,0,0-1.21-1.42,1.45,1.45,0,0,0-1.34,1.42Z" transform="translate(-39.52 -21.42)"/><path class="cls-8" d="M344.43,34.17v1.38h1.25v.66h-1.25V38.8c0,.59.17.93.65.93a2,2,0,0,0,.51-.06l0,.65a2.13,2.13,0,0,1-.77.12,1.18,1.18,0,0,1-.94-.37,1.74,1.74,0,0,1-.34-1.24V36.21h-.74v-.66h.74V34.4Z" transform="translate(-39.52 -21.42)"/><path class="cls-8" d="M350.67,39c0,.5,0,.93,0,1.31h-.77l-.05-.78h0a1.82,1.82,0,0,1-1.59.89c-.75,0-1.65-.42-1.65-2.1v-2.8h.87V38.2c0,.91.28,1.53,1.07,1.53a1.26,1.26,0,0,0,1.15-.8,1.19,1.19,0,0,0,.08-.44V35.55h.87Z" transform="translate(-39.52 -21.42)"/><path class="cls-8" d="M352.12,37c0-.56,0-1,0-1.49h.76l0,.94h0a1.44,1.44,0,0,1,1.33-1.05,1,1,0,0,1,.25,0v.82a1.32,1.32,0,0,0-.3,0A1.23,1.23,0,0,0,353,37.38a2.48,2.48,0,0,0,0,.41v2.55h-.86Z" transform="translate(-39.52 -21.42)"/><path class="cls-8" d="M360.12,40.34l-.07-.6h0a1.82,1.82,0,0,1-1.47.71,1.37,1.37,0,0,1-1.47-1.38c0-1.16,1-1.79,2.89-1.78v-.1a1,1,0,0,0-1.09-1.11,2.38,2.38,0,0,0-1.25.36l-.2-.58a3.06,3.06,0,0,1,1.58-.42c1.46,0,1.82,1,1.82,2v1.79a6.69,6.69,0,0,0,.08,1.15ZM360,37.89c-.95,0-2,.15-2,1.08a.77.77,0,0,0,.82.84,1.2,1.2,0,0,0,1.16-.81.86.86,0,0,0,.05-.27Z" transform="translate(-39.52 -21.42)"/><path class="cls-8" d="M366.38,33.31V39.1c0,.43,0,.91,0,1.24h-.79l0-.83h0a1.8,1.8,0,0,1-1.64.94A2.19,2.19,0,0,1,361.89,38,2.29,2.29,0,0,1,364,35.44a1.63,1.63,0,0,1,1.45.73h0V33.31Zm-.87,4.19a1.55,1.55,0,0,0,0-.37,1.29,1.29,0,0,0-1.26-1c-.9,0-1.44.79-1.44,1.85s.48,1.78,1.42,1.78a1.32,1.32,0,0,0,1.28-1,1.53,1.53,0,0,0,0-.38Z" transform="translate(-39.52 -21.42)"/><path class="cls-8" d="M368.8,34.2a.54.54,0,1,1-1.08,0,.53.53,0,0,1,.54-.54A.51.51,0,0,1,368.8,34.2Zm-1,6.14V35.55h.87v4.79Z" transform="translate(-39.52 -21.42)"/><path class="cls-8" d="M370.14,37.11c0-.61,0-1.11,0-1.56h.78l0,.82h0a1.88,1.88,0,0,1,1.7-.93,2.17,2.17,0,0,1,2,2.43c0,1.73-1.05,2.58-2.18,2.58A1.68,1.68,0,0,1,371,39.7h0v2.6h-.87Zm.87,1.28a2,2,0,0,0,0,.36,1.34,1.34,0,0,0,1.3,1c.92,0,1.46-.76,1.46-1.86s-.51-1.78-1.43-1.78a1.38,1.38,0,0,0-1.31,1.08,1.43,1.43,0,0,0-.06.36Z" transform="translate(-39.52 -21.42)"/><path class="cls-8" d="M376.75,34.2a.52.52,0,0,1-.55.54.54.54,0,0,1,0-1.08A.51.51,0,0,1,376.75,34.2Zm-1,6.14V35.55h.87v4.79Z" transform="translate(-39.52 -21.42)"/><path class="cls-8" d="M378,39.45a2.3,2.3,0,0,0,1.15.35c.63,0,.93-.32.93-.72s-.25-.64-.89-.88c-.86-.31-1.27-.78-1.27-1.36a1.48,1.48,0,0,1,1.66-1.4,2.4,2.4,0,0,1,1.18.3l-.22.63a1.87,1.87,0,0,0-1-.28c-.52,0-.81.3-.81.66s.29.57.92.81c.83.31,1.25.73,1.25,1.44s-.65,1.44-1.79,1.44a2.75,2.75,0,0,1-1.35-.33Z" transform="translate(-39.52 -21.42)"/><path class="cls-8" d="M385.44,40.16a3.19,3.19,0,0,1-1.38.28A2.28,2.28,0,0,1,381.68,38a2.43,2.43,0,0,1,2.57-2.54,2.89,2.89,0,0,1,1.21.25l-.2.67a2,2,0,0,0-1-.23,1.81,1.81,0,0,0,0,3.61,2.45,2.45,0,0,0,1.07-.24Z" transform="translate(-39.52 -21.42)"/><path class="cls-8" d="M387.43,34.2a.54.54,0,1,1-1.07,0,.52.52,0,0,1,.54-.54A.51.51,0,0,1,387.43,34.2Zm-1,6.14V35.55h.88v4.79Z" transform="translate(-39.52 -21.42)"/><path class="cls-8" d="M388.78,36.84c0-.49,0-.9,0-1.29h.78l0,.79h0a1.77,1.77,0,0,1,1.59-.9c.66,0,1.69.39,1.69,2v2.86H392V37.58c0-.77-.29-1.42-1.11-1.42a1.25,1.25,0,0,0-1.17.89,1.27,1.27,0,0,0-.06.41v2.88h-.87Z" transform="translate(-39.52 -21.42)"/><path class="cls-8" d="M398.41,35.55c0,.34,0,.73,0,1.31v2.79a2.78,2.78,0,0,1-.68,2.19,2.57,2.57,0,0,1-1.74.57,3.09,3.09,0,0,1-1.6-.4l.22-.66a2.68,2.68,0,0,0,1.4.38c.9,0,1.55-.47,1.55-1.68v-.53h0a1.72,1.72,0,0,1-1.53.8,2.15,2.15,0,0,1-2-2.34,2.3,2.3,0,0,1,2.16-2.54,1.59,1.59,0,0,1,1.5.83h0l0-.72Zm-.9,1.89a1.28,1.28,0,0,0-1.27-1.32c-.83,0-1.42.7-1.42,1.81,0,.94.47,1.73,1.41,1.73a1.28,1.28,0,0,0,1.21-.89,1.53,1.53,0,0,0,.07-.47Z" transform="translate(-39.52 -21.42)"/><path class="cls-8" d="M402.41,38.1a1.54,1.54,0,0,0,1.64,1.67,3.16,3.16,0,0,0,1.33-.25l.15.62a3.9,3.9,0,0,1-1.6.3A2.23,2.23,0,0,1,401.57,38a2.33,2.33,0,0,1,2.25-2.58,2,2,0,0,1,2,2.26,3.29,3.29,0,0,1,0,.4Zm2.55-.62a1.24,1.24,0,0,0-1.21-1.42,1.44,1.44,0,0,0-1.33,1.42Z" transform="translate(-39.52 -21.42)"/><path class="cls-8" d="M406.88,33.31h.88v7h-.88Z" transform="translate(-39.52 -21.42)"/><path class="cls-8" d="M410.19,34.2a.51.51,0,0,1-.55.54.54.54,0,0,1,0-1.08A.51.51,0,0,1,410.19,34.2Zm-1,6.14V35.55h.87v4.79Z" transform="translate(-39.52 -21.42)"/><path class="cls-8" d="M412.59,34.17v1.38h1.25v.66h-1.25V38.8c0,.59.17.93.65.93a2,2,0,0,0,.51-.06l0,.65a2.13,2.13,0,0,1-.77.12,1.18,1.18,0,0,1-.94-.37,1.74,1.74,0,0,1-.34-1.24V36.21H411v-.66h.74V34.4Z" transform="translate(-39.52 -21.42)"/><path class="cls-8" d="M414.23,41.56a15.49,15.49,0,0,0,.59-2.37l1-.1a12.25,12.25,0,0,1-.94,2.41Z" transform="translate(-39.52 -21.42)"/><path class="cls-8" d="M418.82,39.45a2.3,2.3,0,0,0,1.15.35c.64,0,.93-.32.93-.72s-.24-.64-.89-.88c-.86-.31-1.27-.78-1.27-1.36a1.48,1.48,0,0,1,1.66-1.4,2.4,2.4,0,0,1,1.18.3l-.22.63a1.87,1.87,0,0,0-1-.28c-.52,0-.8.3-.8.66s.28.57.91.81c.83.31,1.26.73,1.26,1.44s-.66,1.44-1.8,1.44a2.68,2.68,0,0,1-1.34-.33Z" transform="translate(-39.52 -21.42)"/><path class="cls-8" d="M423.35,38.1A1.54,1.54,0,0,0,425,39.77a3.08,3.08,0,0,0,1.32-.25l.15.62a3.85,3.85,0,0,1-1.59.3A2.23,2.23,0,0,1,422.52,38a2.33,2.33,0,0,1,2.25-2.58,2,2,0,0,1,2,2.26,3.29,3.29,0,0,1,0,.4Zm2.56-.62a1.24,1.24,0,0,0-1.21-1.42,1.45,1.45,0,0,0-1.34,1.42Z" transform="translate(-39.52 -21.42)"/><path class="cls-8" d="M432,33.31V39.1c0,.43,0,.91,0,1.24h-.78l0-.83h0a1.78,1.78,0,0,1-1.64.94,2.19,2.19,0,0,1-2-2.44,2.29,2.29,0,0,1,2.15-2.57,1.62,1.62,0,0,1,1.45.73h0V33.31Zm-.87,4.19a1.55,1.55,0,0,0,0-.37,1.28,1.28,0,0,0-1.26-1c-.9,0-1.43.79-1.43,1.85s.47,1.78,1.41,1.78a1.31,1.31,0,0,0,1.28-1,1.53,1.53,0,0,0,0-.38Z" transform="translate(-39.52 -21.42)"/><path class="cls-8" d="M439.66,33.31V39.1c0,.43,0,.91,0,1.24h-.78l0-.83h0a1.78,1.78,0,0,1-1.64.94A2.19,2.19,0,0,1,435.17,38a2.29,2.29,0,0,1,2.15-2.57,1.63,1.63,0,0,1,1.45.73h0V33.31Zm-.87,4.19a1.55,1.55,0,0,0,0-.37,1.29,1.29,0,0,0-1.26-1c-.9,0-1.44.79-1.44,1.85s.48,1.78,1.42,1.78a1.32,1.32,0,0,0,1.28-1,1.53,1.53,0,0,0,0-.38Z" transform="translate(-39.52 -21.42)"/><path class="cls-8" d="M445.45,37.9a2.34,2.34,0,0,1-2.39,2.55,2.28,2.28,0,0,1-2.3-2.47,2.34,2.34,0,0,1,2.38-2.54A2.27,2.27,0,0,1,445.45,37.9Zm-3.81.05c0,1,.61,1.85,1.46,1.85s1.45-.79,1.45-1.87c0-.81-.4-1.84-1.43-1.84S441.64,37,441.64,38Z" transform="translate(-39.52 -21.42)"/><path class="cls-8" d="M306.91,50a1.54,1.54,0,0,0,1.64,1.67,3.13,3.13,0,0,0,1.33-.25L310,52a3.86,3.86,0,0,1-1.6.3,2.22,2.22,0,0,1-2.35-2.42,2.32,2.32,0,0,1,2.24-2.58,2,2,0,0,1,2,2.26,3.59,3.59,0,0,1,0,.4Zm2.55-.62A1.24,1.24,0,0,0,308.25,48a1.45,1.45,0,0,0-1.33,1.42Z" transform="translate(-39.52 -21.42)"/><path class="cls-8" d="M312.36,46.09a.54.54,0,1,1-1.08,0,.53.53,0,0,1,.54-.54A.51.51,0,0,1,312.36,46.09Zm-1,6.14V47.44h.87v4.79Z" transform="translate(-39.52 -21.42)"/><path class="cls-8" d="M317.72,50.92c0,.5,0,.93,0,1.31H317l-.05-.78h0a1.8,1.8,0,0,1-1.58.89c-.75,0-1.65-.42-1.65-2.1v-2.8h.87v2.65c0,.91.27,1.53,1.07,1.53a1.27,1.27,0,0,0,1.15-.8,1.45,1.45,0,0,0,.07-.44V47.44h.88Z" transform="translate(-39.52 -21.42)"/><path class="cls-8" d="M319.05,51.34a2.24,2.24,0,0,0,1.15.35c.63,0,.93-.32.93-.72s-.25-.64-.9-.88c-.86-.3-1.26-.78-1.26-1.35a1.47,1.47,0,0,1,1.65-1.41,2.37,2.37,0,0,1,1.18.3l-.22.63a1.84,1.84,0,0,0-1-.28c-.51,0-.8.3-.8.66s.29.57.91.81c.83.32,1.26.73,1.26,1.44s-.66,1.44-1.79,1.44a2.72,2.72,0,0,1-1.35-.33Z" transform="translate(-39.52 -21.42)"/><path class="cls-8" d="M323.09,48.74c0-.5,0-.91,0-1.3h.76l0,.77h0a1.64,1.64,0,0,1,1.51-.88,1.41,1.41,0,0,1,1.35,1h0a1.85,1.85,0,0,1,.54-.62,1.6,1.6,0,0,1,1.06-.34c.63,0,1.57.42,1.57,2.08v2.82h-.85V49.52c0-.92-.34-1.48-1-1.48a1.14,1.14,0,0,0-1,.79,1.45,1.45,0,0,0-.07.44v3h-.85V49.36c0-.76-.34-1.32-1-1.32a1.19,1.19,0,0,0-1.08.87,1.21,1.21,0,0,0-.07.43v2.89h-.85Z" transform="translate(-39.52 -21.42)"/><path class="cls-8" d="M335.69,49.79a2.34,2.34,0,0,1-2.39,2.55A2.28,2.28,0,0,1,331,49.87a2.34,2.34,0,0,1,2.37-2.54A2.27,2.27,0,0,1,335.69,49.79Zm-3.8.05c0,1,.6,1.85,1.45,1.85s1.46-.79,1.46-1.87c0-.81-.41-1.84-1.44-1.84S331.89,48.93,331.89,49.84Z" transform="translate(-39.52 -21.42)"/><path class="cls-8" d="M340.93,45.2V51c0,.43,0,.91,0,1.24h-.78l0-.83h0a1.78,1.78,0,0,1-1.63.94,2.19,2.19,0,0,1-2.05-2.44,2.29,2.29,0,0,1,2.14-2.57,1.62,1.62,0,0,1,1.45.73h0V45.2Zm-.87,4.19a1.55,1.55,0,0,0,0-.37,1.28,1.28,0,0,0-1.26-1c-.9,0-1.43.79-1.43,1.85s.47,1.78,1.41,1.78a1.31,1.31,0,0,0,1.28-1,1.53,1.53,0,0,0,0-.38Z" transform="translate(-39.52 -21.42)"/><path class="cls-8" d="M345.53,46.06v1.38h1.25v.66h-1.25v2.59c0,.59.17.93.65.93a2,2,0,0,0,.51-.06l0,.65a2.13,2.13,0,0,1-.77.12A1.18,1.18,0,0,1,345,52a1.74,1.74,0,0,1-.34-1.24V48.1h-.74v-.66h.74V46.29Z" transform="translate(-39.52 -21.42)"/><path class="cls-8" d="M348.19,50a1.54,1.54,0,0,0,1.64,1.67,3.16,3.16,0,0,0,1.33-.25l.15.62a3.9,3.9,0,0,1-1.6.3,2.23,2.23,0,0,1-2.36-2.42,2.33,2.33,0,0,1,2.25-2.58,2,2,0,0,1,2,2.26,3.13,3.13,0,0,1,0,.4Zm2.55-.62A1.24,1.24,0,0,0,349.53,48a1.45,1.45,0,0,0-1.33,1.42Z" transform="translate(-39.52 -21.42)"/><path class="cls-8" d="M352.67,48.74c0-.5,0-.91,0-1.3h.76l0,.77h0a1.63,1.63,0,0,1,1.5-.88,1.42,1.42,0,0,1,1.36,1h0a1.94,1.94,0,0,1,.53-.62,1.64,1.64,0,0,1,1.06-.34c.64,0,1.58.42,1.58,2.08v2.82h-.85V49.52c0-.92-.34-1.48-1-1.48a1.13,1.13,0,0,0-1,.79,1.45,1.45,0,0,0-.07.44v3h-.85V49.36c0-.76-.34-1.32-1-1.32a1.18,1.18,0,0,0-1.08.87,1.21,1.21,0,0,0-.07.43v2.89h-.85Z" transform="translate(-39.52 -21.42)"/><path class="cls-8" d="M360.93,49c0-.61,0-1.11,0-1.56h.78l0,.82h0a1.89,1.89,0,0,1,1.7-.93,2.17,2.17,0,0,1,2,2.44c0,1.72-1,2.57-2.17,2.57a1.69,1.69,0,0,1-1.48-.75h0v2.6h-.86Zm.86,1.28a2,2,0,0,0,0,.36,1.35,1.35,0,0,0,1.31,1c.92,0,1.45-.76,1.45-1.86s-.5-1.78-1.42-1.78a1.39,1.39,0,0,0-1.32,1.08,1.43,1.43,0,0,0-.06.36Z" transform="translate(-39.52 -21.42)"/><path class="cls-8" d="M366.57,48.93c0-.56,0-1,0-1.49h.76l0,.94h0a1.43,1.43,0,0,1,1.33-1.05.88.88,0,0,1,.24,0v.82a1.29,1.29,0,0,0-.29,0,1.22,1.22,0,0,0-1.17,1.12,2.48,2.48,0,0,0,0,.41v2.55h-.86Z" transform="translate(-39.52 -21.42)"/><path class="cls-8" d="M372.88,46.09a.54.54,0,1,1-1.08,0,.53.53,0,0,1,.54-.54A.51.51,0,0,1,372.88,46.09Zm-1,6.14V47.44h.87v4.79Z" transform="translate(-39.52 -21.42)"/><path class="cls-8" d="M374.23,48.74c0-.5,0-.91,0-1.3H375l.05.79h0a1.75,1.75,0,0,1,1.58-.9c.67,0,1.7.4,1.7,2v2.86h-.88V49.47c0-.77-.28-1.42-1.1-1.42a1.24,1.24,0,0,0-1.17.89,1.27,1.27,0,0,0-.06.41v2.88h-.87Z" transform="translate(-39.52 -21.42)"/><path class="cls-8" d="M383.14,52.05a3.19,3.19,0,0,1-1.38.28,2.28,2.28,0,0,1-2.38-2.45A2.43,2.43,0,0,1,382,47.34a2.89,2.89,0,0,1,1.21.25l-.2.67a2,2,0,0,0-1-.23,1.81,1.81,0,0,0,0,3.61A2.41,2.41,0,0,0,383,51.4Z" transform="translate(-39.52 -21.42)"/><path class="cls-8" d="M388.17,50.92c0,.5,0,.93,0,1.31h-.77l-.05-.78h0a1.8,1.8,0,0,1-1.58.89c-.75,0-1.66-.42-1.66-2.1v-2.8H385v2.65c0,.91.27,1.53,1.07,1.53a1.24,1.24,0,0,0,1.14-.8,1.19,1.19,0,0,0,.08-.44V47.44h.87Z" transform="translate(-39.52 -21.42)"/><path class="cls-8" d="M389.51,51.34a2.23,2.23,0,0,0,1.14.35c.64,0,.93-.32.93-.72s-.24-.64-.89-.88c-.86-.3-1.26-.78-1.26-1.35a1.47,1.47,0,0,1,1.65-1.41,2.37,2.37,0,0,1,1.18.3l-.22.63a1.84,1.84,0,0,0-1-.28c-.52,0-.8.3-.8.66s.28.57.91.81c.83.32,1.26.73,1.26,1.44s-.66,1.44-1.8,1.44a2.68,2.68,0,0,1-1.34-.33Z" transform="translate(-39.52 -21.42)"/><path class="cls-8" d="M397.69,45.2V51c0,.43,0,.91,0,1.24H397l0-.83h0a1.8,1.8,0,0,1-1.64.94,2.19,2.19,0,0,1-2.05-2.44,2.29,2.29,0,0,1,2.15-2.57,1.63,1.63,0,0,1,1.45.73h0V45.2Zm-.87,4.19a1.55,1.55,0,0,0,0-.37,1.29,1.29,0,0,0-1.26-1c-.9,0-1.44.79-1.44,1.85s.48,1.78,1.42,1.78a1.32,1.32,0,0,0,1.28-1,1.53,1.53,0,0,0,0-.38Z" transform="translate(-39.52 -21.42)"/><path class="cls-8" d="M399,51.34a2.27,2.27,0,0,0,1.15.35c.63,0,.93-.32.93-.72s-.25-.64-.89-.88c-.87-.3-1.27-.78-1.27-1.35a1.47,1.47,0,0,1,1.65-1.41,2.37,2.37,0,0,1,1.18.3l-.22.63a1.81,1.81,0,0,0-1-.28c-.51,0-.8.3-.8.66s.29.57.91.81c.83.32,1.26.73,1.26,1.44s-.65,1.44-1.79,1.44A2.72,2.72,0,0,1,398.8,52Z" transform="translate(-39.52 -21.42)"/><path class="cls-8" d="M407.2,45.2V51c0,.43,0,.91,0,1.24h-.78l0-.83h0a1.78,1.78,0,0,1-1.64.94,2.19,2.19,0,0,1-2.05-2.44,2.29,2.29,0,0,1,2.15-2.57,1.62,1.62,0,0,1,1.45.73h0V45.2Zm-.87,4.19a1.55,1.55,0,0,0,0-.37A1.28,1.28,0,0,0,405,48c-.9,0-1.43.79-1.43,1.85s.47,1.78,1.41,1.78a1.31,1.31,0,0,0,1.28-1,1.53,1.53,0,0,0,0-.38Z" transform="translate(-39.52 -21.42)"/><path class="cls-8" d="M409.7,46.06v1.38H411v.66H409.7v2.59c0,.59.17.93.65.93a2,2,0,0,0,.51-.06l0,.65a2.15,2.15,0,0,1-.78.12,1.21,1.21,0,0,1-.94-.37,1.79,1.79,0,0,1-.33-1.24V48.1h-.74v-.66h.74V46.29Z" transform="translate(-39.52 -21.42)"/><path class="cls-8" d="M418.17,45.2V51c0,.43,0,.91,0,1.24h-.78l0-.83h0a1.78,1.78,0,0,1-1.64.94,2.19,2.19,0,0,1-2.05-2.44,2.29,2.29,0,0,1,2.15-2.57,1.63,1.63,0,0,1,1.45.73h0V45.2Zm-.87,4.19a1.55,1.55,0,0,0,0-.37A1.29,1.29,0,0,0,416,48c-.9,0-1.44.79-1.44,1.85s.48,1.78,1.42,1.78a1.32,1.32,0,0,0,1.28-1,1.53,1.53,0,0,0,0-.38Z" transform="translate(-39.52 -21.42)"/><path class="cls-8" d="M419.5,51.34a2.27,2.27,0,0,0,1.15.35c.63,0,.93-.32.93-.72s-.25-.64-.89-.88c-.86-.3-1.27-.78-1.27-1.35a1.47,1.47,0,0,1,1.65-1.41,2.34,2.34,0,0,1,1.18.3l-.21.63a1.88,1.88,0,0,0-1-.28c-.51,0-.8.3-.8.66s.29.57.91.81c.84.32,1.26.73,1.26,1.44s-.65,1.44-1.79,1.44a2.72,2.72,0,0,1-1.35-.33Z" transform="translate(-39.52 -21.42)"/><path class="cls-8" d="M423.63,52.23V48.1H423v-.66h.67v-.23a2.23,2.23,0,0,1,.56-1.67,1.64,1.64,0,0,1,1.16-.45,2,2,0,0,1,.75.14l-.12.67a1.31,1.31,0,0,0-.56-.11c-.74,0-.93.66-.93,1.39v.26h1.16v.66h-1.16v4.13Z" transform="translate(-39.52 -21.42)"/><path class="cls-8" d="M430.45,45.2V51c0,.43,0,.91,0,1.24h-.79l0-.83h0a1.77,1.77,0,0,1-1.63.94A2.19,2.19,0,0,1,426,49.9a2.29,2.29,0,0,1,2.15-2.57,1.6,1.6,0,0,1,1.44.73h0V45.2Zm-.87,4.19a1.55,1.55,0,0,0,0-.37,1.29,1.29,0,0,0-1.26-1c-.9,0-1.44.79-1.44,1.85s.48,1.78,1.42,1.78a1.32,1.32,0,0,0,1.28-1,1.53,1.53,0,0,0,0-.38Z" transform="translate(-39.52 -21.42)"/><path class="cls-8" d="M431.78,51.34a2.24,2.24,0,0,0,1.15.35c.63,0,.93-.32.93-.72s-.25-.64-.9-.88c-.86-.3-1.26-.78-1.26-1.35a1.47,1.47,0,0,1,1.65-1.41,2.37,2.37,0,0,1,1.18.3l-.22.63a1.84,1.84,0,0,0-1-.28c-.51,0-.8.3-.8.66s.29.57.91.81c.83.32,1.26.73,1.26,1.44s-.66,1.44-1.79,1.44a2.72,2.72,0,0,1-1.35-.33Z" transform="translate(-39.52 -21.42)"/><path class="cls-8" d="M435.5,51.72a.59.59,0,0,1,.6-.63.63.63,0,1,1-.6.63Z" transform="translate(-39.52 -21.42)"/><path class="cls-8" d="M438.25,50a1.54,1.54,0,0,0,1.64,1.67,3.16,3.16,0,0,0,1.33-.25l.15.62a3.86,3.86,0,0,1-1.6.3,2.22,2.22,0,0,1-2.35-2.42,2.32,2.32,0,0,1,2.24-2.58,2,2,0,0,1,2,2.26,3.13,3.13,0,0,1,0,.4Zm2.55-.62A1.24,1.24,0,0,0,439.59,48a1.45,1.45,0,0,0-1.33,1.42Z" transform="translate(-39.52 -21.42)"/><path class="cls-8" d="M443.21,50a1.54,1.54,0,0,0,1.65,1.67,3.08,3.08,0,0,0,1.32-.25l.15.62a3.85,3.85,0,0,1-1.59.3,2.23,2.23,0,0,1-2.36-2.42,2.33,2.33,0,0,1,2.25-2.58,2,2,0,0,1,2,2.26,3.13,3.13,0,0,1,0,.4Zm2.56-.62A1.24,1.24,0,0,0,444.56,48a1.46,1.46,0,0,0-1.34,1.42Z" transform="translate(-39.52 -21.42)"/><path class="cls-8" d="M449.71,49.23v.64h-2.45v-.64Z" transform="translate(-39.52 -21.42)"/><path class="cls-8" d="M310.56,57.09v5.79c0,.43,0,.91,0,1.24h-.78l0-.83h0a1.78,1.78,0,0,1-1.63.94,2.19,2.19,0,0,1-2.05-2.44,2.29,2.29,0,0,1,2.15-2.57,1.61,1.61,0,0,1,1.44.73h0V57.09Zm-.87,4.19a1.55,1.55,0,0,0,0-.37,1.28,1.28,0,0,0-1.26-1c-.9,0-1.43.79-1.43,1.85s.47,1.78,1.41,1.78a1.31,1.31,0,0,0,1.28-1,1.53,1.53,0,0,0,0-.38Z" transform="translate(-39.52 -21.42)"/><path class="cls-8" d="M312,57.09h.87v7H312Z" transform="translate(-39.52 -21.42)"/><path class="cls-8" d="M317,64.12l-.07-.6h0a1.82,1.82,0,0,1-1.47.71A1.37,1.37,0,0,1,314,62.85c0-1.16,1-1.79,2.89-1.78V61a1,1,0,0,0-1.09-1.11,2.35,2.35,0,0,0-1.25.36l-.2-.57a3,3,0,0,1,1.57-.43c1.47,0,1.83,1,1.83,2V63a6.69,6.69,0,0,0,.08,1.15Zm-.12-2.44c-1,0-2,.14-2,1.07a.78.78,0,0,0,.83.84,1.2,1.2,0,0,0,1.16-.81.81.81,0,0,0,.05-.27Z" transform="translate(-39.52 -21.42)"/><path class="cls-8" d="M319.09,64.12c0-.33,0-.81,0-1.24V57.09H320v3h0a1.78,1.78,0,0,1,1.63-.88c1.19,0,2,1,2,2.45a2.28,2.28,0,0,1-2.15,2.56,1.7,1.7,0,0,1-1.6-.9h0l0,.79Zm.9-1.92a1.65,1.65,0,0,0,0,.32,1.35,1.35,0,0,0,1.3,1c.92,0,1.46-.75,1.46-1.85s-.5-1.78-1.43-1.78A1.39,1.39,0,0,0,320,61a1.73,1.73,0,0,0-.05.36Z" transform="translate(-39.52 -21.42)"/><path class="cls-8" d="M329.1,61.69a2.34,2.34,0,0,1-2.39,2.54,2.28,2.28,0,0,1-2.29-2.47,2.34,2.34,0,0,1,2.37-2.54A2.27,2.27,0,0,1,329.1,61.69Zm-3.8,0c0,1.05.6,1.85,1.45,1.85s1.46-.79,1.46-1.87c0-.81-.41-1.84-1.44-1.84S325.3,60.82,325.3,61.73Z" transform="translate(-39.52 -21.42)"/><path class="cls-8" d="M330.2,60.82c0-.56,0-1,0-1.49h.77l0,.94h0a1.42,1.42,0,0,1,1.32-1.05,1,1,0,0,1,.25,0v.82a1.32,1.32,0,0,0-.3,0,1.23,1.23,0,0,0-1.17,1.12,2.48,2.48,0,0,0,0,.41v2.55h-.86Z" transform="translate(-39.52 -21.42)"/><path class="cls-8" d="M333.83,61.88a1.54,1.54,0,0,0,1.64,1.67,3.13,3.13,0,0,0,1.33-.25l.15.62a3.85,3.85,0,0,1-1.59.3A2.23,2.23,0,0,1,333,61.8a2.33,2.33,0,0,1,2.25-2.58,2,2,0,0,1,2,2.26,3.13,3.13,0,0,1,0,.4Zm2.55-.62a1.23,1.23,0,0,0-1.2-1.42,1.46,1.46,0,0,0-1.34,1.42Z" transform="translate(-39.52 -21.42)"/><path class="cls-8" d="M340.89,61.88a1.55,1.55,0,0,0,1.65,1.67,3.16,3.16,0,0,0,1.33-.25l.14.62a3.81,3.81,0,0,1-1.59.3,2.23,2.23,0,0,1-2.36-2.42,2.33,2.33,0,0,1,2.25-2.58,2,2,0,0,1,2,2.26,3.13,3.13,0,0,1,0,.4Zm2.56-.62a1.24,1.24,0,0,0-1.21-1.42,1.46,1.46,0,0,0-1.34,1.42Z" transform="translate(-39.52 -21.42)"/><path class="cls-8" d="M346.42,58v1.38h1.25V60h-1.25v2.59c0,.59.17.93.66.93a1.93,1.93,0,0,0,.5-.06l0,.65a2.09,2.09,0,0,1-.77.12,1.2,1.2,0,0,1-.94-.37,1.74,1.74,0,0,1-.34-1.24V60h-.74v-.66h.74V58.18Z" transform="translate(-39.52 -21.42)"/><path class="cls-8" d="M352.73,57.09v5.79c0,.43,0,.91,0,1.24H352l0-.83h0a1.78,1.78,0,0,1-1.63.94,2.19,2.19,0,0,1-2.05-2.44,2.29,2.29,0,0,1,2.15-2.57,1.61,1.61,0,0,1,1.44.73h0V57.09Zm-.87,4.19a1.55,1.55,0,0,0,0-.37,1.28,1.28,0,0,0-1.26-1c-.9,0-1.43.79-1.43,1.85s.47,1.78,1.41,1.78a1.31,1.31,0,0,0,1.28-1,1.53,1.53,0,0,0,0-.38Z" transform="translate(-39.52 -21.42)"/><path class="cls-8" d="M358.52,61.69a2.34,2.34,0,0,1-2.39,2.54,2.29,2.29,0,0,1-2.3-2.47,2.34,2.34,0,0,1,2.38-2.54A2.27,2.27,0,0,1,358.52,61.69Zm-3.8,0c0,1.05.6,1.85,1.45,1.85s1.46-.79,1.46-1.87c0-.81-.41-1.84-1.44-1.84S354.72,60.82,354.72,61.73Z" transform="translate(-39.52 -21.42)"/><path class="cls-8" d="M359.62,57.09h.87v7h-.87Z" transform="translate(-39.52 -21.42)"/><path class="cls-8" d="M366.3,61.69a2.34,2.34,0,0,1-2.39,2.54,2.28,2.28,0,0,1-2.3-2.47A2.34,2.34,0,0,1,364,59.22,2.27,2.27,0,0,1,366.3,61.69Zm-3.81,0c0,1.05.61,1.85,1.46,1.85s1.46-.79,1.46-1.87c0-.81-.41-1.84-1.44-1.84S362.49,60.82,362.49,61.73Z" transform="translate(-39.52 -21.42)"/><path class="cls-8" d="M367.4,60.82c0-.56,0-1,0-1.49h.76l0,.94h0a1.43,1.43,0,0,1,1.33-1.05,1,1,0,0,1,.25,0v.82a1.32,1.32,0,0,0-.3,0,1.22,1.22,0,0,0-1.17,1.12,2.48,2.48,0,0,0,0,.41v2.55h-.86Z" transform="translate(-39.52 -21.42)"/><path class="cls-8" d="M371,61.88a1.55,1.55,0,0,0,1.65,1.67A3.16,3.16,0,0,0,374,63.3l.14.62a3.81,3.81,0,0,1-1.59.3,2.23,2.23,0,0,1-2.36-2.42,2.33,2.33,0,0,1,2.25-2.58,2,2,0,0,1,2,2.26,3.13,3.13,0,0,1,0,.4Zm2.56-.62a1.24,1.24,0,0,0-1.21-1.42A1.46,1.46,0,0,0,371,61.26Z" transform="translate(-39.52 -21.42)"/><path class="cls-8" d="M378.16,64.12l-.07-.6h0a1.8,1.8,0,0,1-1.47.71,1.36,1.36,0,0,1-1.46-1.38c0-1.16,1-1.79,2.88-1.78V61a1,1,0,0,0-1.09-1.11,2.38,2.38,0,0,0-1.25.36l-.2-.57a3,3,0,0,1,1.58-.43c1.46,0,1.82,1,1.82,2V63a6.69,6.69,0,0,0,.08,1.15ZM378,61.68c-.95,0-2,.14-2,1.07a.78.78,0,0,0,.82.84,1.2,1.2,0,0,0,1.16-.81.81.81,0,0,0,0-.27Z" transform="translate(-39.52 -21.42)"/><path class="cls-8" d="M383.55,63.38h0a1.72,1.72,0,0,1-1.57.85,2.19,2.19,0,0,1-2-2.43,2.29,2.29,0,0,1,2.17-2.58,1.6,1.6,0,0,1,1.48.83h0l0-.72h.82c0,.4,0,.82,0,1.32v5.43h-.87Zm0-2.11a1.5,1.5,0,0,0,0-.37,1.29,1.29,0,0,0-1.25-1c-.9,0-1.45.76-1.45,1.84s.46,1.79,1.42,1.79a1.31,1.31,0,0,0,1.25-.95,1.48,1.48,0,0,0,.07-.42Z" transform="translate(-39.52 -21.42)"/><path class="cls-8" d="M389.87,62.81c0,.5,0,.93,0,1.31h-.77l-.05-.78h0a1.81,1.81,0,0,1-1.59.89c-.75,0-1.65-.42-1.65-2.1v-2.8h.87V62c0,.91.28,1.53,1.07,1.53a1.27,1.27,0,0,0,1.15-.8,1.19,1.19,0,0,0,.08-.44V59.33h.87Z" transform="translate(-39.52 -21.42)"/><path class="cls-8" d="M394,64.12l-.07-.6h0a1.78,1.78,0,0,1-1.46.71,1.37,1.37,0,0,1-1.47-1.38c0-1.16,1-1.79,2.88-1.78V61a1,1,0,0,0-1.09-1.11,2.34,2.34,0,0,0-1.24.36l-.2-.57a2.93,2.93,0,0,1,1.57-.43c1.47,0,1.82,1,1.82,2V63a6.69,6.69,0,0,0,.08,1.15Zm-.13-2.44c-.95,0-2,.14-2,1.07a.78.78,0,0,0,.82.84,1.19,1.19,0,0,0,1.16-.81.81.81,0,0,0,0-.27Z" transform="translate(-39.52 -21.42)"/><path class="cls-8" d="M395.89,63.61a.58.58,0,0,1,.59-.63.63.63,0,1,1-.59.63Z" transform="translate(-39.52 -21.42)"/><text class="cls-9" transform="translate(296.69 595.03)"><tspan class="cls-10">L</tspan><tspan x="4.54" y="0">o</tspan><tspan class="cls-10" x="9.98" y="0">L</tspan><tspan x="14.52" y="0">o</tspan><tspan class="cls-11" x="19.96" y="0">r</tspan><tspan x="23.1" y="0">em ipsum dolor sit ame</tspan><tspan class="cls-12" x="119.9" y="0">t</tspan><tspan x="123.15" y="0">, </tspan><tspan class="cls-13" x="0" y="11.89">c</tspan><tspan x="4.38" y="11.89">onse</tspan><tspan class="cls-14" x="24.21" y="11.89">c</tspan><tspan class="cls-13" x="28.77" y="11.89">t</tspan><tspan x="31.99" y="11.89">etur adipiscing eli</tspan><tspan class="cls-15" x="105.12" y="11.89">t</tspan><tspan x="108.37" y="11.89">, sed do </tspan><tspan x="0" y="23.78">eiusmod </tspan><tspan class="cls-13" x="38.06" y="23.78">t</tspan><tspan x="41.28" y="23.78">empor incusdsdt </tspan><tspan x="0" y="35.67">ds</tspan><tspan class="cls-16" x="9.51" y="35.67">f</tspan><tspan class="cls-17" x="12.28" y="35.67">d</tspan><tspan class="cls-18" x="17.86" y="35.67">s</tspan><tspan x="21.68" y="35.67">.eedlabo</tspan><tspan class="cls-11" x="57.44" y="35.67">r</tspan><tspan x="60.58" y="35.67">e e</tspan><tspan class="cls-13" x="72.61" y="35.67">t</tspan><tspan x="75.83" y="35.67">dolo</tspan><tspan class="cls-11" x="94.64" y="35.67">r</tspan><tspan x="97.78" y="35.67">eaqua.</tspan></text><text class="cls-9" transform="translate(136.45 526.46)"><tspan class="cls-10">L</tspan><tspan x="4.54" y="0">o</tspan><tspan class="cls-10" x="9.98" y="0">L</tspan><tspan x="14.52" y="0">o</tspan><tspan class="cls-11" x="19.96" y="0">r</tspan><tspan x="23.1" y="0">em ipsum dolor sit ame</tspan><tspan class="cls-12" x="119.9" y="0">t</tspan><tspan x="123.15" y="0">, </tspan><tspan class="cls-13" x="0" y="11.89">c</tspan><tspan x="4.38" y="11.89">onse</tspan><tspan class="cls-14" x="24.21" y="11.89">c</tspan><tspan class="cls-13" x="28.77" y="11.89">t</tspan><tspan x="31.99" y="11.89">etur adipiscing eli</tspan><tspan class="cls-15" x="105.12" y="11.89">t</tspan><tspan x="108.37" y="11.89">, sed </tspan></text><text class="cls-9" transform="translate(455.48 487.61)"><tspan class="cls-10">L</tspan><tspan x="4.54" y="0">o</tspan><tspan class="cls-10" x="9.98" y="0">L</tspan><tspan x="14.52" y="0">o</tspan><tspan class="cls-19" x="19.96" y="0">r</tspan><tspan x="23.1" y="0">em ipsum dolor sit ame</tspan><tspan class="cls-20" x="119.9" y="0">t</tspan><tspan x="123.15" y="0">, </tspan><tspan class="cls-13" x="0" y="11.89">c</tspan><tspan x="4.38" y="11.89">onse</tspan><tspan class="cls-14" x="24.21" y="11.89">c</tspan><tspan class="cls-13" x="28.77" y="11.89">t</tspan><tspan x="31.99" y="11.89">etur adipiscing eli</tspan><tspan class="cls-12" x="105.12" y="11.89">t</tspan><tspan x="108.37" y="11.89">, sed </tspan></text><text class="cls-9" transform="translate(564.16 348.14)"><tspan class="cls-10">L</tspan><tspan x="4.54" y="0">o</tspan><tspan class="cls-10" x="9.98" y="0">L</tspan><tspan x="14.52" y="0">o</tspan><tspan class="cls-19" x="19.96" y="0">r</tspan><tspan x="23.1" y="0">em ipsum dolor sit ame</tspan><tspan class="cls-20" x="119.9" y="0">t</tspan><tspan x="123.15" y="0">, </tspan><tspan class="cls-13" x="0" y="11.89">c</tspan><tspan x="4.38" y="11.89">onse</tspan><tspan class="cls-14" x="24.21" y="11.89">c</tspan><tspan class="cls-13" x="28.77" y="11.89">t</tspan><tspan x="31.99" y="11.89">etur adipiscing eli</tspan><tspan class="cls-12" x="105.12" y="11.89">t</tspan><tspan x="108.37" y="11.89">, sed </tspan></text><text class="cls-9" transform="translate(0 367.03)"><tspan class="cls-10">L</tspan><tspan x="4.54" y="0">o</tspan><tspan class="cls-10" x="9.98" y="0">L</tspan><tspan x="14.52" y="0">o</tspan><tspan class="cls-19" x="19.96" y="0">r</tspan><tspan x="23.1" y="0">em ipsum dolor sit ame</tspan><tspan class="cls-20" x="119.9" y="0">t</tspan><tspan x="123.15" y="0">, </tspan><tspan class="cls-13" x="0" y="11.89">c</tspan><tspan x="4.38" y="11.89">onse</tspan><tspan class="cls-14" x="24.21" y="11.89">c</tspan><tspan class="cls-13" x="28.77" y="11.89">t</tspan><tspan x="31.99" y="11.89">etur adipiscing eli</tspan><tspan class="cls-12" x="105.12" y="11.89">t</tspan><tspan x="108.37" y="11.89">, sed </tspan></text><text class="cls-9" transform="translate(490.94 142.95)"><tspan class="cls-10">L</tspan><tspan x="4.54" y="0">o</tspan><tspan class="cls-10" x="9.98" y="0">L</tspan><tspan x="14.52" y="0">o</tspan><tspan class="cls-19" x="19.96" y="0">r</tspan><tspan x="23.1" y="0">em ipsum dolor sit ame</tspan><tspan class="cls-20" x="119.9" y="0">t</tspan><tspan x="123.15" y="0">, </tspan><tspan class="cls-13" x="0" y="11.89">c</tspan><tspan x="4.38" y="11.89">onse</tspan><tspan class="cls-14" x="24.21" y="11.89">c</tspan><tspan class="cls-13" x="28.77" y="11.89">t</tspan><tspan x="31.99" y="11.89">etur adipiscing eli</tspan><tspan class="cls-12" x="105.12" y="11.89">t</tspan><tspan x="108.37" y="11.89">, sed </tspan></text><text class="cls-9" transform="translate(61.26 164.96)"><tspan class="cls-10">L</tspan><tspan x="4.54" y="0">o</tspan><tspan class="cls-10" x="9.98" y="0">L</tspan><tspan x="14.52" y="0">o</tspan><tspan class="cls-11" x="19.96" y="0">r</tspan><tspan x="23.1" y="0">em ipsum dolor sit ame</tspan><tspan class="cls-12" x="119.9" y="0">t</tspan><tspan x="123.15" y="0">, </tspan><tspan class="cls-13" x="0" y="11.89">c</tspan><tspan x="4.38" y="11.89">onse</tspan><tspan class="cls-14" x="24.21" y="11.89">c</tspan><tspan class="cls-13" x="28.77" y="11.89">t</tspan><tspan x="31.99" y="11.89">etur adipiscing eli</tspan><tspan class="cls-15" x="105.12" y="11.89">t</tspan><tspan x="108.37" y="11.89">, sed </tspan></text><path class="cls-7" d="M289.05,258.18l-16.41-13.62c-34.36,33.17-35.94,85.57-35.94,85.57l21.5,2.09A135.83,135.83,0,0,1,289.05,258.18Z" transform="translate(-39.52 -21.42)"/><path class="cls-6" d="M258.27,359.33l-21.57,2.22c3.29,52.16,35.13,84.63,35.13,84.63l16.92-13.94A135.9,135.9,0,0,1,258.27,359.33Z" transform="translate(-39.52 -21.42)"/><path class="cls-2" d="M307.12,450.63l-14,17c43.35,36.87,85.57,35.94,85.57,35.94l2.17-22.26A136,136,0,0,1,307.12,450.63Z" transform="translate(-39.52 -21.42)"/><path class="cls-4" d="M405.91,481.39l1.86,21.35s53.76-2.28,85.87-35.15l-13.33-16.36A135.82,135.82,0,0,1,405.91,481.39Z" transform="translate(-39.52 -21.42)"/><path class="cls-7" d="M529.91,359.28a135.83,135.83,0,0,1-31,73.52l17.18,14.32s34.93-36.41,35.94-85.57Z" transform="translate(-39.52 -21.42)"/><path class="cls-3" d="M530.08,333.32l22-1.95s-.29-47.75-35.15-85.87L500,259.26A135.94,135.94,0,0,1,530.08,333.32Z" transform="translate(-39.52 -21.42)"/><path class="cls-1" d="M481.74,240.72l13.93-16.62s-28.23-31.17-85.57-35.94l-2.18,21.39A135.94,135.94,0,0,1,481.74,240.72Z" transform="translate(-39.52 -21.42)"/><path class="cls-4" d="M381.84,209.41l-1.92-21.27s-47.58-.07-85.87,35.15l13.51,16.49A135.92,135.92,0,0,1,381.84,209.41Z" transform="translate(-39.52 -21.42)"/><text x="-39.52" y="-21.42"/><text x="-39.52" y="-21.42"/><line class="cls-21" x1="356.82" y1="320.26" x2="356.17" y2="320.26"/><line class="cls-21" x1="356.82" y1="320.26" x2="356.82" y2="320.23"/><line class="cls-21" x1="356.17" y1="320.26" x2="356.17" y2="320.23"/><text class="cls-22" transform="translate(356.81 320.45)">0.0</text><text class="cls-22" transform="translate(356.81 320.21)">0.2</text><text class="cls-22" transform="translate(356.81 319.98)">0.4</text><text class="cls-22" transform="translate(356.81 319.74)">0.6</text><text class="cls-22" transform="translate(356.81 319.51)">0.8</text><text class="cls-22" transform="translate(356.81 319.27)">1.0</text><line class="cls-21" x1="356.82" y1="320.26" x2="356.82" y2="319.09"/><line class="cls-21" x1="356.82" y1="320.26" x2="356.84" y2="320.26"/><line class="cls-21" x1="356.82" y1="320.02" x2="356.84" y2="320.02"/><line class="cls-21" x1="356.82" y1="319.79" x2="356.84" y2="319.79"/><line class="cls-21" x1="356.82" y1="319.56" x2="356.84" y2="319.56"/><line class="cls-21" x1="356.82" y1="319.32" x2="356.84" y2="319.32"/><line class="cls-21" x1="356.82" y1="319.09" x2="356.84" y2="319.09"/><rect class="cls-23" x="356.26" y="319.09" width="0.47" height="1.17"/></svg>